<?xml version="1.0" encoding="utf-8"?>
<!-- Generator: Adobe Illustrator 15.1.0, SVG Export Plug-In . SVG Version: 6.00 Build 0)  -->
<!DOCTYPE svg PUBLIC "-//W3C//DTD SVG 1.0//EN" "http://www.w3.org/TR/2001/REC-SVG-20010904/DTD/svg10.dtd">
<svg version="1.0" id="Vrstva_1" xmlns="http://www.w3.org/2000/svg" xmlns:xlink="http://www.w3.org/1999/xlink" x="0px" y="0px"
	 width="287.535px" height="88.663px" viewBox="0 0 287.535 88.663" enable-background="new 0 0 287.535 88.663"
	 xml:space="preserve">
<g>
	<g>
		<g>
			<path fill="#FFFFFF" d="M67.461,69.331H46.76c-0.107-1.02-0.161-1.843-0.161-2.469c0-1.771,0.125-3.865,0.358-6.28
				c-4.151,6.638-9.948,9.948-17.391,9.948c-5.046,0-9.107-1.449-12.22-4.348c-3.113-2.898-4.67-6.531-4.67-10.896
				c0-3.256,0.841-6.227,2.523-8.946c1.682-2.702,4.044-4.867,7.121-6.459c3.078-1.61,6.227-2.666,9.447-3.185
				c3.203-0.501,9.501-1.198,18.858-2.057c0.43-1.306,0.626-2.308,0.626-3.042c0-2.898-2.022-4.366-6.065-4.366
				c-3.99,0-6.924,1.986-8.821,5.94l-17.23-3.525c4.366-9.823,13.974-14.725,28.824-14.725c7.515,0,13.419,1.306,17.713,3.9
				c4.294,2.612,6.459,6.441,6.459,11.505c0,2.272-1.27,10.306-3.775,24.118c-0.949,5.136-1.432,8.535-1.432,10.217
				C66.925,66.021,67.104,67.578,67.461,69.331L67.461,69.331z M48.8,44.174c-9.608,0.734-14.421,3.811-14.421,9.215
				c0,2.97,1.556,4.455,4.67,4.455c1.986,0,3.99-0.877,5.976-2.666C47.011,53.389,48.263,49.721,48.8,44.174z"/>
			<path fill-rule="evenodd" clip-rule="evenodd" d="M9.548,24.143L0,26.308l14.136,62.355L76.49,74.526l-2.269-10.008l-7.231,1.639
				c0.081,0.975,0.239,2.032,0.471,3.173H52.993L21.416,76.49l-1.964-8.661c-0.745-0.484-1.447-1.033-2.107-1.647
				c-3.113-2.898-4.67-6.531-4.67-10.896c0-2.956,0.692-5.675,2.077-8.185L9.548,24.143z"/>
			<path fill-rule="evenodd" clip-rule="evenodd" fill="#093266" d="M69.634,0L7.279,14.135l7.474,32.966
				c0.141-0.256,0.29-0.51,0.445-0.762c1.682-2.702,4.044-4.867,7.121-6.459c3.077-1.61,6.226-2.666,9.447-3.185
				c3.203-0.501,9.501-1.198,18.858-2.057c0.43-1.306,0.626-2.308,0.626-3.042c0-2.898-2.022-4.366-6.065-4.366
				c-3.99,0-6.924,1.986-8.821,5.94l-17.23-3.525c4.366-9.823,13.974-14.725,28.824-14.725c7.515,0,13.419,1.306,17.713,3.9
				c4.294,2.612,6.459,6.441,6.459,11.505c0,2.272-1.271,10.306-3.776,24.118c-0.948,5.136-1.431,8.535-1.431,10.217
				c0,0.475,0.022,0.974,0.065,1.497l16.779-3.804L69.634,0L69.634,0z M19.452,67.829c2.772,1.8,6.137,2.701,10.114,2.701
				c7.443,0,13.24-3.31,17.391-9.948c-0.232,2.415-0.358,4.509-0.358,6.28c0,0.626,0.054,1.45,0.161,2.469h6.233L21.416,76.49
				L19.452,67.829L19.452,67.829z M48.8,44.174c-0.537,5.547-1.789,9.215-3.775,11.004c-1.986,1.789-3.99,2.666-5.976,2.666
				c-3.113,0-4.67-1.485-4.67-4.455C34.379,47.985,39.192,44.908,48.8,44.174z"/>
		</g>
		<path fill="#FFFFFF" d="M67.461,69.331H46.76c-0.107-1.02-0.161-1.843-0.161-2.469c0-1.771,0.125-3.865,0.358-6.28
			c-4.151,6.638-9.948,9.948-17.391,9.948c-5.046,0-9.107-1.449-12.22-4.348c-3.113-2.898-4.67-6.531-4.67-10.896
			c0-3.256,0.841-6.227,2.523-8.946c1.682-2.702,4.044-4.867,7.121-6.459c3.078-1.61,6.227-2.666,9.447-3.185
			c3.203-0.501,9.501-1.198,18.858-2.057c0.43-1.306,0.626-2.308,0.626-3.042c0-2.898-2.022-4.366-6.065-4.366
			c-3.99,0-6.924,1.986-8.821,5.94l-17.23-3.525c4.366-9.823,13.974-14.725,28.824-14.725c7.515,0,13.419,1.306,17.713,3.9
			c4.294,2.612,6.459,6.441,6.459,11.505c0,2.272-1.27,10.306-3.775,24.118c-0.949,5.136-1.432,8.535-1.432,10.217
			C66.925,66.021,67.104,67.578,67.461,69.331L67.461,69.331z M48.8,44.174c-9.608,0.734-14.421,3.811-14.421,9.215
			c0,2.97,1.556,4.455,4.67,4.455c1.986,0,3.99-0.877,5.976-2.666C47.011,53.389,48.263,49.721,48.8,44.174z"/>
	</g>
	<path fill="#093266" d="M134.067,62.822h-13.278c-0.052-0.675-0.074-1.221-0.064-1.635c0.028-1.173,0.142-2.559,0.329-4.159
		c-2.768,4.396-6.539,6.588-11.313,6.588c-3.236,0-5.818-0.959-7.769-2.879c-1.951-1.919-2.892-4.325-2.822-7.215
		c0.052-2.157,0.639-4.124,1.76-5.924c1.122-1.79,2.671-3.223,4.67-4.278c1.999-1.066,4.036-1.765,6.11-2.109
		c2.062-0.332,6.113-0.794,12.128-1.363c0.296-0.865,0.438-1.528,0.45-2.014c0.046-1.919-1.228-2.891-3.821-2.891
		c-2.559,0-4.472,1.315-5.752,3.934l-10.995-2.334c2.956-6.504,9.197-9.751,18.722-9.751c4.82,0,8.586,0.865,11.299,2.583
		c2.712,1.729,4.041,4.266,3.96,7.618c-0.037,1.505-0.979,6.825-2.805,15.972c-0.69,3.4-1.054,5.652-1.081,6.766
		C133.775,60.63,133.865,61.661,134.067,62.822L134.067,62.822z M122.497,46.163c-6.174,0.486-9.31,2.524-9.396,6.102
		c-0.047,1.967,0.927,2.95,2.924,2.95c1.274,0,2.573-0.581,3.875-1.765C121.203,52.265,122.065,49.836,122.497,46.163
		L122.497,46.163z M158.396,15.44h-12.91l-8.803,47.382h12.911L158.396,15.44L158.396,15.44z M184.553,54.042l-1.623,8.78h-30.388
		l1.463-7.879l17.329-18.673H158.62l1.581-8.507h29.252l-1.275,6.766l-18.245,19.515H184.553L184.553,54.042z M220.721,62.822
		c-0.202-1.161-0.292-2.192-0.271-3.092c0.027-1.114,0.391-3.365,1.081-6.766c1.826-9.147,2.769-14.467,2.805-15.972
		c0.081-3.353-1.247-5.889-3.96-7.618c-2.713-1.718-6.479-2.583-11.299-2.583c-9.525,0-15.766,3.247-18.722,9.751l10.995,2.334
		c1.279-2.619,3.193-3.934,5.752-3.934c2.594,0,3.867,0.971,3.821,2.891c-0.012,0.486-0.154,1.149-0.45,2.014
		c-6.015,0.569-10.066,1.031-12.128,1.363c-2.074,0.344-4.111,1.042-6.11,2.109c-2,1.055-3.549,2.488-4.67,4.278
		c-1.122,1.801-1.708,3.768-1.76,5.924c-0.069,2.891,0.871,5.296,2.822,7.215c1.951,1.92,4.532,2.879,7.769,2.879
		c4.774,0,8.545-2.192,11.313-6.588c-0.188,1.6-0.301,2.986-0.33,4.159c-0.01,0.415,0.012,0.96,0.064,1.635H220.721L220.721,62.822z
		 M209.152,46.163c-0.433,3.673-1.294,6.102-2.596,7.287c-1.302,1.185-2.602,1.765-3.875,1.765c-1.997,0-2.972-0.983-2.924-2.95
		C199.842,48.687,202.978,46.649,209.152,46.163z"/>
	<path d="M234.701,53.001l-1.721,9.634h-9.214l1.696-9.634H234.701L234.701,53.001z M253.113,52.184l7.45,1.989
		c-1.421,3.478-3.237,5.884-5.447,7.228c-2.21,1.334-4.473,2.006-6.803,2.006c-3.42,0-6.186-1.171-8.303-3.523
		c-2.118-2.351-3.13-5.375-3.046-9.062c0.097-4.204,1.456-7.917,4.095-11.141c2.64-3.232,6.072-4.849,10.289-4.849
		c3.068,0,5.636,0.999,7.72,2.997c2.084,1.997,3.09,4.567,3.018,7.7l-8.45,1.062c0.066-2.905-0.806-4.358-2.625-4.358
		c-1.559,0-2.685,1.189-3.401,3.56c-0.708,2.379-1.083,4.458-1.123,6.229c-0.06,2.624,0.832,3.94,2.659,3.94
		C250.947,55.962,252.267,54.699,253.113,52.184L253.113,52.184z M283.955,55.907h-10.681l13.329-14.954l0.932-5.185h-21.37
		l-1.155,6.519h9.289l-12.66,14.31l-1.069,6.038h22.2L283.955,55.907z"/>
</g>
</svg>
