<?xml version="1.0" encoding="UTF-8"?>
<!-- Generator: Adobe Illustrator 24.2.3, SVG Export Plug-In . SVG Version: 6.00 Build 0)  -->
<svg version="1.1" id="Layer_1" xmlns="http://www.w3.org/2000/svg" xmlns:xlink="http://www.w3.org/1999/xlink" x="0px" y="0px" viewBox="0 0 283 63.7" style="enable-background:new 0 0 283 63.7;" xml:space="preserve">
<style type="text/css">
	.st0{fill:#D5E6A0;}
	.st1{fill:#005941;}
</style>
<g>
	<path class="st0" d="M132.2,0.1c-17.6,0-31.8,14.2-31.8,31.8s14.2,31.7,31.8,31.7c17.5,0,31.8-14.2,31.8-31.7l0,0   C164,14.3,149.8,0.1,132.2,0.1L132.2,0.1z"/>
	<path class="st1" d="M164.1,29.8c1.1,17.6-12.4,32.7-30,33.8c-3.7,0.2-7.4-0.2-11-1.2c-0.2,0-0.2-0.1-0.4-0.1   c-3.5-1.2-6.7-3.2-9.3-5.8c-7.1-7.2-9.5-17.8-6.4-27.4c2.7-8.9,11.6-16.4,20.7-17.9c1.5-0.2,3-0.3,4.4-0.4V3.4l0.1-0.1   c7.3,2.3,14.2,9,17,16.1c-2.8,7.1-9.7,13.8-17,16c-0.1-2.3,0-5-0.1-7.4h-0.2c-7.5,2.8-13.5,8.6-16.5,16c2.7,7.1,9.5,13.7,16.8,16   c0.1-2.5,0-4.8,0-7.4c4-0.1,7.9-1,11.4-2.6c10.1-4.9,16.1-15.5,15-26.6c-0.5-5.5-2.8-10.6-6.5-14.7c-2.5-2.7-5.4-4.9-8.7-6.4   C154.9,6.1,163.5,17.8,164.1,29.8L164.1,29.8z"/>
	<path class="st1" d="M0,48.5v-32h21.5v8.7H11.3v3.1h9.2v8.2h-9.2v3.4h10.4v8.7L0,48.5z M34.2,48.5v-32h11.3v13.6l7.3-13.6h13   l-9.6,15.8l11,16.2H53.3l-7.8-13.4v13.4H34.2z M87.7,38.6c1.5,0.1,2.9-0.6,3.9-1.6c1-1.2,1.5-2.8,1.5-4.4c0.1-1.6-0.4-3.2-1.5-4.4   C89.5,26,86.1,26,84,28l0,0l-0.2,0.1c-1,1.2-1.6,2.8-1.5,4.4c-0.1,1.6,0.5,3.2,1.5,4.4C84.8,38,86.2,38.6,87.7,38.6L87.7,38.6z    M100.4,44c-0.1,0.2-0.3,0.3-0.4,0.5c-1.6,1.5-3.5,2.8-5.6,3.6c-4.3,1.7-9.1,1.7-13.4,0c-2.1-0.8-4-2.1-5.6-3.6s-2.8-3.3-3.6-5.3   c-1.6-4.2-1.6-8.9,0-13.2c0.8-2,2-3.9,3.6-5.4c1.6-1.6,3.5-2.8,5.5-3.6c4.3-1.7,9.1-1.7,13.5,0c2,0.8,3.8,1.9,5.4,3.4l0.3,0.3   C97.5,28.2,97.6,36.5,100.4,44z M162.8,16.5h11.5v13.6l7.3-13.6h13L185,32.2l11,16.2h-14l-7.8-13.3v13.4h-12   C167.6,38.5,167.8,26.6,162.8,16.5L162.8,16.5z M216.5,38.6c1.5,0.1,2.9-0.6,3.9-1.6c1-1.2,1.6-2.8,1.5-4.4   c0.1-1.6-0.5-3.2-1.5-4.4c-2.1-2.2-5.5-2.2-7.6-0.2l0,0l-0.2,0.2c-1,1.2-1.6,2.8-1.5,4.4c-0.1,1.6,0.5,3.2,1.5,4.4   C213.5,38,215,38.6,216.5,38.6L216.5,38.6z M233.6,32.6c0,2.2-0.4,4.5-1.2,6.5s-2.1,3.9-3.6,5.4c-1.6,1.5-3.5,2.8-5.5,3.6   c-4.3,1.7-9.1,1.7-13.4,0c-2.1-0.8-4-2.1-5.6-3.6s-2.8-3.3-3.6-5.3c-1.6-4.2-1.6-8.9,0-13.2c0.8-2,2-3.9,3.6-5.4   c1.6-1.6,3.5-2.8,5.5-3.6c4.3-1.7,9.1-1.7,13.5,0c2.1,0.8,4,2,5.6,3.6c1.6,1.5,2.8,3.4,3.6,5.4C233.2,28.1,233.6,30.3,233.6,32.6z    M271.7,48.5l-1.4-12.7c-0.1-1-0.2-1.9-0.3-2.9c-0.1-1-0.2-2-0.2-2.9c-0.1,0.9-0.3,1.9-0.5,2.9c-0.2,1-0.5,2.1-0.9,3.3l-3.7,12.3   h-6.9l-3.6-12.4c-0.4-1.2-0.7-2.3-0.9-3.3c-0.2-1-0.4-2-0.6-2.9c-0.1,1-0.1,2-0.2,2.9c-0.1,0.9-0.1,1.9-0.2,2.9l-1.4,12.7h-11.3   l5.5-32H257l2.3,7.9c0.1,0.2,0.2,0.6,0.3,1.1c0.8,2.7,1.4,5.4,1.8,8.2h0.2c0.2-1.3,0.5-2.8,0.8-4.3s0.8-3.2,1.4-5.2l2.4-7.8h11.9   l5.1,32L271.7,48.5z"/>
</g>
</svg>