<?xml version="1.0" encoding="utf-8"?>
<!-- Generator: Adobe Illustrator 15.1.0, SVG Export Plug-In . SVG Version: 6.00 Build 0)  -->
<!DOCTYPE svg PUBLIC "-//W3C//DTD SVG 1.1//EN" "http://www.w3.org/Graphics/SVG/1.1/DTD/svg11.dtd">
<svg version="1.1" id="Vrstva_1" xmlns="http://www.w3.org/2000/svg" xmlns:xlink="http://www.w3.org/1999/xlink" x="0px" y="0px"
	 width="209.569px" height="56.52px" viewBox="0 0 209.569 56.52" enable-background="new 0 0 209.569 56.52" xml:space="preserve">
<g>
	<g>
		<rect fill="#FFFFFF" width="56.521" height="56.52"/>
		<g>
			<path fill="#003A80" d="M56.52,27.361c-0.092,0-0.184,0.024-0.266,0.072c-1.696,0.994-3.641,1.519-5.624,1.519
				c-2.981,0-5.78-1.161-7.88-3.267l-8.734-8.76C34.012,16.92,20.527,3.46,20.527,3.46c-0.114-0.114-1.422-1.226-1.509-1.305
				C17.415,0.811,15.35,0,13.094,0C8,0,3.869,4.13,3.869,9.225c0,1.511,0.365,2.933,1.008,4.191l0.004-0.004
				c0.342,0.693,0.807,1.347,1.425,1.981l3.331,3.331l-0.001,0.001c2.174,2.125,8.137,1.957,8.137,1.957s3.641,0.151,3.715,0.156
				c3.696,0.259,4.555,1.371,5.618,2.313c0.02,0.017,0.922,0.92,1.895,1.893c0.293,0.279,0.608,0.578,0.919,0.873
				c0.651,0.619,1.288,1.224,1.686,1.601c-0.077-0.023-0.162-0.037-0.251-0.045c-1.178-0.108-3.319,1.057-4.142,1.858L16.189,40.074
				c-0.844,0.822-2.108,3.023-1.958,4.184c0,0.004,0,0.006,0,0.01c-0.113-0.115-0.241-0.248-0.38-0.389
				c-0.184-0.188-0.387-0.396-0.599-0.613c0,0.004-0.002,0.008-0.003,0.012c-0.336-0.336-0.713-0.713-1.086-1.086
				c-1.03-1.028-2.03-2.029-2.048-2.05c-0.942-1.063-1.993-1.982-2.313-5.618c-0.006-0.074-0.156-3.715-0.156-3.715
				s0.171-6.01-1.98-8.163C5.666,22.646,0,16.979,0,16.979V56.52h0.001H56.52V27.361z M27.769,48.793
				c-0.688,0.706-1.818,0.72-2.524,0.032l-0.022-0.021l-6.551-6.386c-0.316-0.309-0.336-0.839-0.104-1.368
				c0.111-0.254,0.28-0.507,0.503-0.735c0.256-0.264,0.546-0.456,0.834-0.571c0.486-0.195,0.964-0.168,1.258,0.117l6.573,6.407
				c0.082,0.079,0.152,0.165,0.214,0.254C28.435,47.21,28.377,48.167,27.769,48.793z M35.911,41.092
				c-0.689,0.707-1.819,0.721-2.525,0.032l-6.574-6.406c-0.269-0.264-0.323-0.687-0.189-1.133c0.098-0.33,0.297-0.672,0.589-0.971
				c0.333-0.343,0.726-0.566,1.094-0.654c0.392-0.094,0.758-0.035,0.999,0.2l6.574,6.407c0.045,0.044,0.087,0.09,0.126,0.137
				C36.583,39.399,36.555,40.431,35.911,41.092z"/>
			<path fill="#003A80" d="M56.52,0H23.783l22.345,22.318c1.201,1.205,2.802,1.868,4.507,1.868c1.698,0,3.293-0.659,4.493-1.854
				c0.607-0.604,1.072-1.307,1.392-2.092v-1.639l0.001-0.005V0H56.52z"/>
		</g>
		<polygon fill="#EE3524" points="46.675,47.585 40.597,45.672 45.24,49.715 30.681,51.15 45.493,53.853 40.764,56.52 56.521,56.52 
			56.521,33.931 56.519,33.931 53.684,44.441 50.897,39.072 50.982,45.226 40.764,32.91 		"/>
	</g>
	<g>
		<polygon fill="#003A80" points="83.134,12.666 90.329,0.568 85.18,0.568 79.25,10.83 76.104,10.83 76.104,0.568 71.372,0.568 
			71.372,25.929 76.104,25.929 76.104,14.923 79.25,14.923 85.406,25.891 85.428,25.929 90.752,25.929 83.134,12.696 		"/>
		<g>
			<path fill="#003A80" d="M100.08,9.996l-0.018-0.018c-1.091-1.02-2.45-2.289-2.45-3.546c0-1.446,1.199-2.537,2.789-2.537
				c1.543,0,2.848,1.081,2.848,2.359C103.248,8.064,101.455,9.253,100.08,9.996 M98.989,14.66l5.057,5.51
				c-1.318,1.277-2.66,2.412-4.51,2.412c-2.188,0-3.9-1.635-3.9-3.723C95.635,16.842,97.148,15.759,98.989,14.66 M114.736,12.569
				h-5.192l-2.774,4.214l-3.915-4.224c1.791-0.939,4.683-3,4.683-6.519c0-1.938-0.756-3.524-2.186-4.588
				C104.092,0.516,102.309,0,100.329,0c-4.276,0-7.038,2.455-7.038,6.254c0,2.511,1.39,4.097,2.884,5.758
				c-3.32,1.327-5.378,4.037-5.378,7.096c0,5.126,4.457,7.461,8.597,7.461c3.102,0,5.327-1.041,7.423-3.477l2.627,2.837h5.709
				l-5.508-6.012L114.736,12.569z"/>
			<path fill="#003A80" d="M123.565,17.059c-0.344,1.005-0.655,2.393-0.823,3.138c-0.039,0.174-0.075,0.333-0.099,0.434
				c-0.025-0.103-0.063-0.264-0.102-0.44c-0.168-0.745-0.48-2.129-0.822-3.131L116.181,0.62l-0.017-0.052h-5.1l9.252,25.361h4.65
				l9.215-25.259l0.037-0.102h-5.063L123.565,17.059z"/>
			<path fill="#003A80" d="M76.104,45.371h8.486v-4.092h-8.486v-6.453h10.51v-4.094H72.901c-0.829,0.031-1.501,0.705-1.53,1.536
				v22.288c0.03,0.861,0.728,1.535,1.583,1.535h0l14.227,0.002V52H76.104V45.371z"/>
			<path fill="#003A80" d="M94.743,30.732h-4.732l0,24.027c0.126,0.772,0.786,1.332,1.563,1.332h0l13.157,0.002V52h-9.99V30.732z"/>
		</g>
		<polygon fill="#003A80" points="134.098,40.994 130.952,40.994 130.952,30.732 126.219,30.732 126.219,56.093 130.952,56.093 
			130.952,45.087 134.096,45.087 140.253,56.055 140.275,56.093 145.6,56.093 137.981,42.86 137.981,42.832 142.743,34.826 
			149.991,34.826 149.991,56.093 154.723,56.093 154.723,34.826 162.196,34.826 162.196,30.732 140.028,30.732 		"/>
		<g>
			<path fill="#003A80" d="M176.708,38.656c0,2.442-1.458,3.9-3.901,3.9h-4.042v-7.73h3.403
				C175.35,34.826,176.708,35.971,176.708,38.656 M177.258,45.343c2.586-1.063,4.254-3.778,4.254-6.936
				c0-3.23-1.518-5.766-4.164-6.959c-1.172-0.528-2.509-0.717-5.108-0.717h-6.673c-0.859,0.032-1.533,0.729-1.532,1.582
				l-0.002,23.779h4.732v-9.408h4.28l4.985,9.368l0.021,0.04h5.287l-5.245-9.521C177.672,45.82,177.354,45.449,177.258,45.343"/>
			<path fill="#003A80" d="M196.461,34.648c4.617,0,8.233,3.771,8.233,8.588c0,5.015-3.616,8.943-8.233,8.943
				c-4.616,0-8.232-3.929-8.232-8.943C188.229,38.419,191.845,34.648,196.461,34.648 M205.813,34.052
				c-2.434-2.416-5.755-3.746-9.352-3.746c-3.596,0-6.918,1.33-9.352,3.746c-2.422,2.402-3.755,5.664-3.755,9.184
				c0,3.62,1.333,6.973,3.755,9.44c2.432,2.479,5.754,3.844,9.352,3.844c3.6,0,6.92-1.365,9.354-3.844
				c2.42-2.468,3.754-5.82,3.754-9.44C209.569,39.716,208.235,36.456,205.813,34.052"/>
			<path fill="#003A80" d="M112.275,45.371h8.485v-4.092h-8.485v-6.453h10.51v-4.094h-13.712c-0.829,0.031-1.501,0.705-1.529,1.536
				v22.288c0.029,0.861,0.727,1.535,1.582,1.535h0.001l14.227,0.002V52h-11.078V45.371z"/>
		</g>
	</g>
</g>
</svg>
